<mxfile host="drawio-plugin" modified="2021-09-04T15:35:23.397Z" agent="5.0 (Windows NT 6.2; Win64; x64) AppleWebKit/537.36 (KHTML, like Gecko) Chrome/89.0.4389.114 Safari/537.36" etag="__7qZOdP43-SsaC_BAyn" version="14.7.4" type="embed"><diagram id="oYUyzN8JRPa1vdoLPqRL" name="Страница 1"><mxGraphModel dx="856" dy="373" grid="1" gridSize="10" guides="1" tooltips="1" connect="1" arrows="1" fold="1" page="1" pageScale="1" pageWidth="827" pageHeight="1169" math="0" shadow="0"><root><mxCell id="0"/><mxCell id="1" parent="0"/><mxCell id="zV_LcGdDUK6NbFsqQo97-5" value="AuthService" style="swimlane;fontStyle=0;childLayout=stackLayout;horizontal=1;startSize=26;horizontalStack=0;resizeParent=1;resizeParentMax=0;resizeLast=0;collapsible=1;marginBottom=0;" parent="1" vertex="1"><mxGeometry x="40" y="80" width="160" height="120" as="geometry"/></mxCell><mxCell id="zV_LcGdDUK6NbFsqQo97-6" value="регистрация" style="text;strokeColor=none;fillColor=none;align=left;verticalAlign=top;spacingLeft=4;spacingRight=4;overflow=hidden;rotatable=0;points=[[0,0.5],[1,0.5]];portConstraint=eastwest;" parent="zV_LcGdDUK6NbFsqQo97-5" vertex="1"><mxGeometry y="26" width="160" height="26" as="geometry"/></mxCell><mxCell id="zV_LcGdDUK6NbFsqQo97-7" value="аутентификация" style="text;strokeColor=none;fillColor=none;align=left;verticalAlign=top;spacingLeft=4;spacingRight=4;overflow=hidden;rotatable=0;points=[[0,0.5],[1,0.5]];portConstraint=eastwest;" parent="zV_LcGdDUK6NbFsqQo97-5" vertex="1"><mxGeometry y="52" width="160" height="26" as="geometry"/></mxCell><mxCell id="zV_LcGdDUK6NbFsqQo97-8" value="информация о данных&#10;пользователя" style="text;strokeColor=none;fillColor=none;align=left;verticalAlign=top;spacingLeft=4;spacingRight=4;overflow=hidden;rotatable=0;points=[[0,0.5],[1,0.5]];portConstraint=eastwest;" parent="zV_LcGdDUK6NbFsqQo97-5" vertex="1"><mxGeometry y="78" width="160" height="42" as="geometry"/></mxCell><mxCell id="11" style="edgeStyle=orthogonalEdgeStyle;rounded=0;orthogonalLoop=1;jettySize=auto;html=1;exitX=0.25;exitY=0;exitDx=0;exitDy=0;startArrow=none;startFill=0;endArrow=classic;endFill=1;" edge="1" parent="1" source="zV_LcGdDUK6NbFsqQo97-9" target="zV_LcGdDUK6NbFsqQo97-5"><mxGeometry relative="1" as="geometry"><Array as="points"><mxPoint x="320" y="280"/><mxPoint x="120" y="280"/></Array></mxGeometry></mxCell><mxCell id="zV_LcGdDUK6NbFsqQo97-9" value="BillingService" style="swimlane;fontStyle=0;childLayout=stackLayout;horizontal=1;startSize=26;horizontalStack=0;resizeParent=1;resizeParentMax=0;resizeLast=0;collapsible=1;marginBottom=0;" parent="1" vertex="1"><mxGeometry x="280" y="310" width="160" height="170" as="geometry"/></mxCell><mxCell id="zV_LcGdDUK6NbFsqQo97-10" value="оплата заказа" style="text;strokeColor=none;fillColor=none;align=left;verticalAlign=top;spacingLeft=4;spacingRight=4;overflow=hidden;rotatable=0;points=[[0,0.5],[1,0.5]];portConstraint=eastwest;" parent="zV_LcGdDUK6NbFsqQo97-9" vertex="1"><mxGeometry y="26" width="160" height="26" as="geometry"/></mxCell><mxCell id="zV_LcGdDUK6NbFsqQo97-11" value="снятие со счета&#10;пользователя" style="text;strokeColor=none;fillColor=none;align=left;verticalAlign=top;spacingLeft=4;spacingRight=4;overflow=hidden;rotatable=0;points=[[0,0.5],[1,0.5]];portConstraint=eastwest;" parent="zV_LcGdDUK6NbFsqQo97-9" vertex="1"><mxGeometry y="52" width="160" height="38" as="geometry"/></mxCell><mxCell id="zV_LcGdDUK6NbFsqQo97-12" value="пополнение счета&#10;пользвателя" style="text;strokeColor=none;fillColor=none;align=left;verticalAlign=top;spacingLeft=4;spacingRight=4;overflow=hidden;rotatable=0;points=[[0,0.5],[1,0.5]];portConstraint=eastwest;" parent="zV_LcGdDUK6NbFsqQo97-9" vertex="1"><mxGeometry y="90" width="160" height="40" as="geometry"/></mxCell><mxCell id="zV_LcGdDUK6NbFsqQo97-21" value="проверка баланка&#10;пользователя" style="text;strokeColor=none;fillColor=none;align=left;verticalAlign=top;spacingLeft=4;spacingRight=4;overflow=hidden;rotatable=0;points=[[0,0.5],[1,0.5]];portConstraint=eastwest;" parent="zV_LcGdDUK6NbFsqQo97-9" vertex="1"><mxGeometry y="130" width="160" height="40" as="geometry"/></mxCell><mxCell id="10" style="edgeStyle=orthogonalEdgeStyle;rounded=0;orthogonalLoop=1;jettySize=auto;html=1;exitX=0.5;exitY=0;exitDx=0;exitDy=0;entryX=0.5;entryY=0;entryDx=0;entryDy=0;" edge="1" parent="1" source="zV_LcGdDUK6NbFsqQo97-13" target="zV_LcGdDUK6NbFsqQo97-5"><mxGeometry relative="1" as="geometry"/></mxCell><mxCell id="14" style="edgeStyle=orthogonalEdgeStyle;rounded=0;orthogonalLoop=1;jettySize=auto;html=1;entryX=0.75;entryY=0;entryDx=0;entryDy=0;startArrow=classic;startFill=1;endArrow=classic;endFill=1;" edge="1" parent="1" source="zV_LcGdDUK6NbFsqQo97-13" target="zV_LcGdDUK6NbFsqQo97-9"><mxGeometry relative="1" as="geometry"><Array as="points"><mxPoint x="600" y="280"/><mxPoint x="400" y="280"/></Array></mxGeometry></mxCell><mxCell id="zV_LcGdDUK6NbFsqQo97-13" value="OrderService" style="swimlane;fontStyle=0;childLayout=stackLayout;horizontal=1;startSize=26;horizontalStack=0;resizeParent=1;resizeParentMax=0;resizeLast=0;collapsible=1;marginBottom=0;" parent="1" vertex="1"><mxGeometry x="520" y="80" width="160" height="120" as="geometry"/></mxCell><mxCell id="zV_LcGdDUK6NbFsqQo97-14" value="хранение списка&#10;доступных к заказу&#10;бутеров" style="text;strokeColor=none;fillColor=none;align=left;verticalAlign=top;spacingLeft=4;spacingRight=4;overflow=hidden;rotatable=0;points=[[0,0.5],[1,0.5]];portConstraint=eastwest;" parent="zV_LcGdDUK6NbFsqQo97-13" vertex="1"><mxGeometry y="26" width="160" height="54" as="geometry"/></mxCell><mxCell id="zV_LcGdDUK6NbFsqQo97-15" value="обработка и хранение&#10;заказов" style="text;strokeColor=none;fillColor=none;align=left;verticalAlign=top;spacingLeft=4;spacingRight=4;overflow=hidden;rotatable=0;points=[[0,0.5],[1,0.5]];portConstraint=eastwest;" parent="zV_LcGdDUK6NbFsqQo97-13" vertex="1"><mxGeometry y="80" width="160" height="40" as="geometry"/></mxCell><mxCell id="13" style="edgeStyle=orthogonalEdgeStyle;rounded=0;orthogonalLoop=1;jettySize=auto;html=1;entryX=0.5;entryY=0;entryDx=0;entryDy=0;startArrow=none;startFill=0;" edge="1" parent="1" source="zV_LcGdDUK6NbFsqQo97-17" target="zV_LcGdDUK6NbFsqQo97-9"><mxGeometry relative="1" as="geometry"/></mxCell><mxCell id="15" style="edgeStyle=orthogonalEdgeStyle;rounded=0;orthogonalLoop=1;jettySize=auto;html=1;startArrow=none;startFill=0;endArrow=classic;endFill=1;" edge="1" parent="1" source="zV_LcGdDUK6NbFsqQo97-17" target="zV_LcGdDUK6NbFsqQo97-5"><mxGeometry relative="1" as="geometry"/></mxCell><mxCell id="16" style="edgeStyle=orthogonalEdgeStyle;rounded=0;orthogonalLoop=1;jettySize=auto;html=1;startArrow=none;startFill=0;endArrow=classic;endFill=1;" edge="1" parent="1" source="zV_LcGdDUK6NbFsqQo97-17" target="zV_LcGdDUK6NbFsqQo97-13"><mxGeometry relative="1" as="geometry"/></mxCell><mxCell id="zV_LcGdDUK6NbFsqQo97-17" value="ButerService" style="swimlane;fontStyle=0;childLayout=stackLayout;horizontal=1;startSize=26;horizontalStack=0;resizeParent=1;resizeParentMax=0;resizeLast=0;collapsible=1;marginBottom=0;" parent="1" vertex="1"><mxGeometry x="280" y="80" width="160" height="160" as="geometry"/></mxCell><mxCell id="zV_LcGdDUK6NbFsqQo97-18" value="оформление заказа" style="text;strokeColor=none;fillColor=none;align=left;verticalAlign=top;spacingLeft=4;spacingRight=4;overflow=hidden;rotatable=0;points=[[0,0.5],[1,0.5]];portConstraint=eastwest;" parent="zV_LcGdDUK6NbFsqQo97-17" vertex="1"><mxGeometry y="26" width="160" height="26" as="geometry"/></mxCell><mxCell id="zV_LcGdDUK6NbFsqQo97-19" value="показ пользователю&#10;прогресса по заказу" style="text;strokeColor=none;fillColor=none;align=left;verticalAlign=top;spacingLeft=4;spacingRight=4;overflow=hidden;rotatable=0;points=[[0,0.5],[1,0.5]];portConstraint=eastwest;" parent="zV_LcGdDUK6NbFsqQo97-17" vertex="1"><mxGeometry y="52" width="160" height="38" as="geometry"/></mxCell><mxCell id="zV_LcGdDUK6NbFsqQo97-20" value="отмена заказа" style="text;strokeColor=none;fillColor=none;align=left;verticalAlign=top;spacingLeft=4;spacingRight=4;overflow=hidden;rotatable=0;points=[[0,0.5],[1,0.5]];portConstraint=eastwest;" parent="zV_LcGdDUK6NbFsqQo97-17" vertex="1"><mxGeometry y="90" width="160" height="26" as="geometry"/></mxCell><mxCell id="zV_LcGdDUK6NbFsqQo97-22" value="просмотр истории&#10;заказов" style="text;strokeColor=none;fillColor=none;align=left;verticalAlign=top;spacingLeft=4;spacingRight=4;overflow=hidden;rotatable=0;points=[[0,0.5],[1,0.5]];portConstraint=eastwest;" parent="zV_LcGdDUK6NbFsqQo97-17" vertex="1"><mxGeometry y="116" width="160" height="44" as="geometry"/></mxCell></root></mxGraphModel></diagram></mxfile>